Coordinates
version=1
nRows=17
nColumns=24
inDegrees=yes

Units are S.I. units (second, meters, Newtons, ...)
Angles are in degrees.

endheader
time	pelvis_tilt	pelvis_list	pelvis_rotation	pelvis_tx	pelvis_ty	pelvis_tz	hip_flexion_r	hip_adduction_r	hip_rotation_r	knee_angle_r	ankle_angle_r	subtalar_angle_r	mtp_angle_r	hip_flexion_l	hip_adduction_l	hip_rotation_l	knee_angle_l	ankle_angle_l	subtalar_angle_l	mtp_angle_l	lumbar_extension	lumbar_bending	lumbar_rotation
      1.20016667	     -2.05058478	     -2.18282945	     -5.91424043	      0.07389523	      1.02094932	      0.33868461	    -16.64073848	      2.68344370	      0.12168900	     -9.43000125	     20.92904495	      4.78646180	      7.16848349	     31.52935761	     -5.37713338	     -3.58038396	     -9.55326422	     10.95698318	      8.17669805	      5.42729564	     -9.00476409	      5.91033696	      2.75771994
      1.20433333	     -2.04903788	     -2.12225221	     -6.01362207	      0.08025420	      1.02037914	      0.33821764	    -16.75843176	      2.47789518	     -0.12597899	     -9.93155106	     20.83890009	      5.32320239	      7.41068810	     31.49037175	     -5.25622014	     -3.39196689	    -10.14492398	     10.65376923	      8.14842942	      5.50998271	     -8.93037817	      5.74665020	      2.87322184
      1.20850000	     -2.01595091	     -2.04924862	     -6.10858634	      0.08663056	      1.01992255	      0.33774024	    -16.92170893	      2.26035747	     -0.26937192	    -10.39891285	     20.61099558	      5.54840331	     10.20738357	     31.40319480	     -5.11313650	     -3.17397390	    -10.70863616	     10.25892072	      7.90591229	      6.43812978	     -8.90025104	      5.60236491	      2.82417548
      1.21266667	     -2.05077889	     -1.99609415	     -6.22199835	      0.09304725	      1.01941803	      0.33729374	    -16.99526323	      2.06662982	     -0.35803203	    -10.90518837	     20.40509565	      5.84705949	     10.27495150	     31.41580415	     -5.02099190	     -3.10580287	    -11.34557267	      9.88701520	      7.93797156	      6.44477890	     -8.78150852	      5.46342501	      2.95181098
      1.21683333	     -2.04790980	     -1.91795536	     -6.32190256	      0.09948304	      1.01902156	      0.33679962	    -17.08333078	      1.83731471	     -0.51980240	    -11.46098091	     20.20477786	      6.18172035	     10.42473309	     31.37632106	     -4.88939193	     -2.99943517	    -11.95520266	      9.47299604	      7.79570592	      6.45968307	     -8.70449303	      5.30658682	      3.00573854
      1.22100000	     -2.04798095	     -1.83711614	     -6.42001435	      0.10595103	      1.01869386	      0.33631510	    -17.16752478	      1.60823745	     -0.62100591	    -12.00991736	     19.89425291	      6.45636332	     10.58630566	     31.33086789	     -4.75798616	     -2.89346675	    -12.54501127	      9.00264841	      7.66744399	      6.47067213	     -8.62399406	      5.12722642	      3.03324063
      1.22516667	     -2.03514445	     -1.74491152	     -6.50810452	      0.11242232	      1.01841755	      0.33575509	    -17.22215738	      1.35525031	     -0.82570701	    -12.64775571	     19.64124918	      6.81592447	     10.90282503	     31.28541828	     -4.60668206	     -2.78938769	    -13.16265624	      8.53637325	      7.40836166	      6.49177821	     -8.54608657	      4.96434799	      3.07988645
      1.22933333	     -2.03744795	     -1.66542032	     -6.59505651	      0.11890490	      1.01820764	      0.33520964	    -17.26357689	      1.12411292	     -0.92356252	    -13.26012712	     19.17877374	      6.97402267	     14.20287454	     31.25501247	     -4.47409934	     -2.68425170	    -13.77807430	      8.04912231	      7.17101990	      6.71816639	     -8.46064826	      4.81159286	      3.06689240
      1.23350000	     -2.03738567	     -1.56430035	     -6.68247637	      0.12540976	      1.01804818	      0.33464641	    -17.26795296	      0.86174851	     -1.07905370	    -13.95586605	     18.81009763	      7.27400262	     14.28943500	     31.23523389	     -4.32784927	     -2.64529277	    -14.42414539	      7.58559545	      6.99147813	      6.70474449	     -8.36847711	      4.62259344	      3.11519767
      1.23766667	     -2.03520278	     -1.45360882	     -6.75930421	      0.13193117	      1.01795087	      0.33405007	    -17.25523197	      0.58909131	     -1.23648867	    -14.68298976	     18.40114133	      7.55436176	     14.46198723	     31.21687624	     -4.16629393	     -2.58691460	    -15.07787193	      7.12026177	      6.72873900	      6.68458150	     -8.27045591	      4.42474741	      3.13124462
      1.24183333	     -1.97388694	     -1.32589264	     -6.80354587	      0.13846515	      1.01801057	      0.33338656	    -17.29242659	      0.29496332	     -1.44615569	    -15.42574790	     17.89537067	      7.81871424	     15.58483181	     31.12573287	     -3.95986802	     -2.45780892	    -15.70338718	      6.65536456	      6.38314729	      6.58975164	     -8.25078933	      4.19875985	      3.11639731
      1.24600000	     -2.02097792	     -1.22303110	     -6.89819012	      0.14500625	      1.01797152	      0.33282192	    -17.17978768	      0.03612528	     -1.48994392	    -16.22778614	     17.36284928	      7.97961410	     15.70636545	     31.18449509	     -3.83855410	     -2.50729912	    -16.42578184	      6.27065944	      6.26315767	      6.56971533	     -8.08723074	      4.01628315	      3.11976874
      1.25016667	     -1.99552472	     -1.09735479	     -6.95055435	      0.15151183	      1.01807018	      0.33211307	    -17.10044743	     -0.26396738	     -1.69437749	    -17.10824113	     16.80617086	      8.21052404	     18.80206911	     31.15547489	     -3.64750224	     -2.42474222	    -17.10898484	      5.88195197	      5.92612031	      6.20545110	     -8.01663298	      3.82697145	      3.11008955
      1.25433333	     -1.97520034	     -0.96658499	     -7.00163811	      0.15806451	      1.01823479	      0.33145704	    -17.01033272	     -0.55836862	     -1.82219369	    -17.99171415	     16.18540013	      8.39286034	     18.84679316	     31.14104521	     -3.46891829	     -2.43239127	    -17.82411996	      5.58832937	      5.79206776	      6.19100396	     -7.93058258	      3.58830432	      3.10912854
      1.25850000	     -1.95275172	     -0.81422729	     -7.04220491	      0.16457294	      1.01842069	      0.33070176	    -16.85326972	     -0.89396853	     -2.06841276	    -19.01140114	     15.66681426	      8.71160982	     19.02339104	     31.11891441	     -3.24874004	     -2.37702660	    -18.51884292	      5.28698721	      5.49408935	      6.15182845	     -7.84473652	      3.36198203	      3.11950844
      1.26266667	     -1.92429746	     -0.66015976	     -7.07414450	      0.17108568	      1.01868414	      0.32994949	    -16.68827960	     -1.22415983	     -2.26226713	    -20.04303504	     15.03958511	      8.93799418	     19.29216337	     31.08243298	     -3.02425955	     -2.32298212	    -19.19953702	      5.01791879	      5.24067131	      6.09393585	     -7.77130050	      3.11873441	      3.10446829
      1.26683333	     -1.86231918	     -0.51330746	     -7.10263115	      0.17756807	      1.01905823	      0.32919526	    -16.53915039	     -1.54812507	     -2.41519991	    -21.08942631	     14.27635162	      9.05497573	     22.58718525	     31.00363321	     -2.80271845	     -2.27996639	    -19.87034894	      4.79636169	      5.00894767	      5.42679188	     -7.74754259	      2.88830076	      3.06753052
